<svg width="60" height="22" viewBox="0 0 60 22" fill="none" xmlns="http://www.w3.org/2000/svg">
<path d="M7.63359 0H0V21.6389H7.63359V0Z" fill="#1D1D1D"/>
<path d="M9.32819 0V21.6389C13.4809 21.6389 17.6335 18.7731 17.6335 10.513C17.6488 3.38683 13.4961 0 9.32819 0Z" fill="#1D1D1D"/>
<path d="M27.6487 7.60122C27.6487 5.82352 26.4732 4.99597 25.1449 4.99597H21.4197V10.2218H25.1449C26.4732 10.2065 27.6487 9.37892 27.6487 7.60122ZM22.7327 9.08775V6.1147H24.6411C25.6335 6.1147 26.3205 6.32925 26.3205 7.60122C26.3205 8.8732 25.6487 9.08775 24.6411 9.08775H22.7327Z" fill="#1D1D1D"/>
<path d="M31.1909 5.74689C29.4352 5.74689 28.1985 6.40586 28.1985 8.03031C28.1985 9.63944 29.481 10.2984 31.1146 10.2984C32.7176 10.2984 33.7863 9.76204 34.0764 8.64331H32.8245C32.5039 9.08774 31.9848 9.25631 31.1146 9.25631C30.2749 9.25631 29.6184 9.02644 29.481 8.32149H34.1527C34.1527 6.31391 32.8245 5.74689 31.1909 5.74689ZM29.5268 7.50926C29.7253 6.89626 30.3207 6.71236 31.1909 6.71236C31.9848 6.71236 32.5955 6.88094 32.8092 7.50926H29.5268Z" fill="#1D1D1D"/>
<path d="M34.5343 8.67396C34.5343 10.0839 36.0763 10.2984 37.7404 10.2984C39.4045 10.2984 40.5038 10.0839 40.5038 8.84253C40.5038 7.67783 39.3435 7.63186 37.6641 7.49393C36.1679 7.38666 35.9389 7.34068 35.9389 7.06483C35.9389 6.80431 36.2748 6.72768 37.4656 6.72768C38.6259 6.72768 39.0839 6.81963 39.0839 7.18743H40.3511C40.3511 5.97676 39.1603 5.76221 37.5419 5.76221C36 5.76221 34.6717 5.97676 34.6717 7.12613C34.6717 8.18355 35.603 8.33681 37.5114 8.44408C39.0381 8.53603 39.2366 8.56668 39.2366 8.90383C39.2366 9.24098 39.0229 9.33293 37.6641 9.33293C36.2595 9.33293 35.7862 9.14903 35.7862 8.68928H34.5343V8.67396Z" fill="#1D1D1D"/>
<path d="M42.3511 4.24506H41.0992V5.36378H42.3511V4.24506Z" fill="#1D1D1D"/>
<path d="M42.3511 5.82349H41.0992V10.2218H42.3511V5.82349Z" fill="#1D1D1D"/>
<path d="M45.4656 10.1605C46.4885 10.1605 47.2213 9.8693 47.6488 9.3789C47.603 10.513 47.1145 11.0187 45.8167 11.0187C44.8549 11.0187 43.8931 10.8041 43.3893 10.7122V11.739C43.8015 11.8462 44.8396 12.0914 46.1068 12.0914C47.7404 12.0914 48.9313 11.3099 48.9313 9.53215V5.83883H47.6641V6.54378C47.2366 6.05338 46.5038 5.76221 45.4809 5.76221C44 5.76221 42.9465 6.42118 42.9465 7.96901C42.9312 9.5015 43.9847 10.1605 45.4656 10.1605ZM45.9236 6.81963C47.0992 6.81963 47.6641 7.15678 47.6641 7.96901C47.6641 8.78123 47.1145 9.10306 45.9236 9.11838C44.7328 9.11838 44.1832 8.78123 44.1832 7.96901C44.1832 7.14146 44.748 6.81963 45.9236 6.81963Z" fill="#1D1D1D"/>
<path d="M54.3969 10.2065H55.6641L55.6794 7.76979C55.6641 6.14534 54.5802 5.73157 53.4351 5.73157C52.3817 5.73157 51.5267 6.08404 50.916 6.57444V5.80819H49.6641V10.2065H50.916V7.73914C51.313 7.27939 52.2137 6.83497 53.0687 6.83497C54.1069 6.83497 54.4122 7.32537 54.4122 8.26019V10.2065H54.3969Z" fill="#1D1D1D"/>
<path d="M24 11.9535L21.3435 17.1793H22.7939L23.3435 16.0606H26.4275L26.9771 17.1793H28.4427L25.7863 11.9535H24ZM23.8473 15.0645L24.9008 12.9496L25.9389 15.0645H23.8473Z" fill="#1D1D1D"/>
<path d="M30.1527 11.5091L28.8856 11.8769V12.7811H27.7405V13.8538H28.8856V15.8614C28.8856 16.8269 29.6031 17.256 30.7176 17.256C31.2978 17.256 31.7711 17.2253 32.1985 17.1487V16.1219C31.6947 16.1986 31.4657 16.1986 31.0688 16.1986C30.3054 16.1986 30.1375 15.984 30.1375 15.1258V13.8538H32.2138V12.7811H30.168V11.5091H30.1527Z" fill="#1D1D1D"/>
<path d="M34.0764 12.7811H32.8245V17.1793H34.0764V12.7811Z" fill="#1D1D1D"/>
<path d="M34.0764 11.2179H32.8245V12.3366H34.0764V11.2179Z" fill="#1D1D1D"/>
<path d="M37.6335 16.2752L35.9388 12.7811H34.5495L36.7327 17.1793H38.519L40.7174 12.7811H39.3281L37.6335 16.2752Z" fill="#1D1D1D"/>
<path d="M42.3969 12.7811H41.145V17.1793H42.3969V12.7811Z" fill="#1D1D1D"/>
<path d="M42.3969 11.2179H41.145V12.3366H42.3969V11.2179Z" fill="#1D1D1D"/>
<path d="M46.1068 14.4514C44.6106 14.3442 44.3816 14.2982 44.3816 14.0223C44.3816 13.7618 44.7175 13.6852 45.9084 13.6852C47.0687 13.6852 47.5267 13.7771 47.5267 14.1449H48.7938C48.7938 12.9343 47.603 12.7197 45.9847 12.7197C44.4427 12.7197 43.1145 12.9343 43.1145 14.0837C43.1145 15.1411 44.0458 15.2943 45.9542 15.4016C47.4809 15.4935 47.6793 15.5242 47.6793 15.8613C47.6793 16.1985 47.4656 16.2904 46.1068 16.2904C44.7022 16.2904 44.229 16.1065 44.229 15.6468H42.9771C42.9771 17.0567 44.519 17.2712 46.1832 17.2712C47.8473 17.2712 48.9465 17.0567 48.9465 15.8154C48.9618 14.62 47.8015 14.5894 46.1068 14.4514Z" fill="#1D1D1D"/>
<path d="M51.5877 11.5091L50.3206 11.8769V12.7811H49.1755V13.8538H50.3206V15.8614C50.3206 16.8269 51.0381 17.256 52.1526 17.256C52.7328 17.256 53.2061 17.2253 53.6335 17.1487V16.1219C53.1297 16.1986 52.9007 16.1986 52.5038 16.1986C51.7404 16.1986 51.5725 15.984 51.5725 15.1258V13.8538H53.6183V12.7811H51.5725V11.5091H51.5877Z" fill="#1D1D1D"/>
<path d="M57.1451 12.7045C56.2443 12.7045 55.3741 12.873 54.4886 13.1642L54.9313 14.099C55.8168 13.8232 56.5039 13.7772 57.084 13.7772C57.6794 13.7772 58.7329 13.8385 58.7329 14.6814C58.168 14.4822 57.481 14.3749 56.7481 14.3749C55.3741 14.3749 54.1375 14.7274 54.1375 15.8767C54.1375 16.8729 54.9008 17.2713 56.1069 17.2713C57.1298 17.2713 57.9695 17.0261 58.7329 16.6583V17.21H60V14.9879C59.9848 13.3021 58.9619 12.7045 57.1451 12.7045ZM58.7329 15.8154C58.0917 16.1066 57.1451 16.3212 56.4581 16.3212C55.8016 16.3212 55.3894 16.2905 55.3894 15.8154C55.3894 15.371 55.9542 15.2024 56.9008 15.2024C57.6947 15.2024 58.2901 15.325 58.7329 15.4783V15.8154Z" fill="#1D1D1D"/>
</svg>
