<svg width="70" height="17" viewBox="0 0 70 17" fill="none" xmlns="http://www.w3.org/2000/svg">
<path d="M5.95268 9.23126H0V16.6094H1.91521V14.1673H5.95268C6.78088 14.1673 7.40202 13.9595 7.85063 13.5265C8.28198 13.0935 8.50629 12.4873 8.50629 11.7079C8.50629 10.9286 8.28198 10.3224 7.85063 9.8894C7.40202 9.45642 6.78088 9.23126 5.95268 9.23126ZM5.45231 12.6259H1.91521V10.79H5.46956C6.17698 10.79 6.52206 11.1018 6.52206 11.7079C6.50481 12.3141 6.15973 12.6259 5.45231 12.6259Z" fill="#1D1D1D"/>
<path d="M14.4934 12.8857C14.7694 12.5393 14.8902 12.089 14.8902 11.5174C14.8902 11.2057 14.8385 10.9113 14.7349 10.6342C14.6314 10.357 14.4934 10.1146 14.2863 9.90674C14.0965 9.6989 13.8377 9.52571 13.5271 9.42179C13.2166 9.30055 12.8715 9.2486 12.4574 9.2486H9.50693V16.6094H11.4221V13.769L13.2338 16.6094H15.6149L13.3028 13.5785C13.8377 13.4572 14.2346 13.2321 14.4934 12.8857ZM12.6472 12.2968C12.4401 12.4527 12.1641 12.5393 11.7845 12.5393H11.4221V10.7208H11.7845C12.1641 10.7208 12.4574 10.8074 12.6472 10.9632C12.8542 11.1191 12.9405 11.3443 12.9405 11.6387C12.9578 11.9158 12.8542 12.141 12.6472 12.2968Z" fill="#1D1D1D"/>
<path d="M17.2196 10.9979C17.582 11.3443 17.9961 11.6214 18.4964 11.8292C18.9968 12.0197 19.5317 12.1236 20.1356 12.1236C20.7222 12.1236 21.2744 12.0197 21.7747 11.8292C22.2751 11.6387 22.7065 11.3616 23.0688 10.9979C23.4311 10.6515 23.7072 10.2358 23.9142 9.76818C24.1213 9.30055 24.2076 8.78097 24.2076 8.24407C24.2076 7.68984 24.104 7.18758 23.9142 6.71995C23.7072 6.25233 23.4311 5.83666 23.0688 5.49027C22.7065 5.14388 22.2751 4.86677 21.7747 4.65893C21.2744 4.46842 20.7222 4.3645 20.1356 4.3645C19.5317 4.3645 18.9968 4.46842 18.4964 4.65893C17.9961 4.84945 17.582 5.12656 17.2196 5.49027C16.8573 5.85398 16.5812 6.25233 16.3742 6.71995C16.1671 7.18758 16.0809 7.70716 16.0809 8.24407C16.0809 8.79829 16.1844 9.30055 16.3742 9.76818C16.564 10.2358 16.8746 10.6342 17.2196 10.9979ZM18.2376 7.41273C18.3412 7.17026 18.4964 6.9451 18.6862 6.77191C18.876 6.5814 19.1003 6.44284 19.3419 6.33892C19.5835 6.23501 19.8595 6.18305 20.1356 6.18305C20.4117 6.18305 20.6705 6.23501 20.9293 6.33892C21.1708 6.44284 21.3951 6.5814 21.5849 6.77191C21.7747 6.96242 21.93 7.17026 22.0335 7.41273C22.1371 7.6552 22.2061 7.93231 22.2061 8.22675C22.2061 8.52118 22.1543 8.79829 22.0335 9.04076C21.93 9.28323 21.7747 9.50839 21.5849 9.68158C21.3951 9.8721 21.1708 10.0107 20.9293 10.1146C20.6877 10.2185 20.4117 10.2704 20.1356 10.2704C19.8595 10.2704 19.6007 10.2185 19.3419 10.1146C19.1003 10.0107 18.876 9.8721 18.6862 9.68158C18.4964 9.49107 18.3412 9.28323 18.2376 9.04076C18.1341 8.79829 18.0651 8.52118 18.0651 8.22675C18.0824 7.93231 18.1341 7.67252 18.2376 7.41273Z" fill="#1D1D1D"/>
<path d="M31.4543 9.23126H25.2945V16.6094H27.2097V14.1673H31.4715C32.2997 14.1673 32.9209 13.9595 33.3695 13.5265C33.8008 13.0935 34.0251 12.4873 34.0251 11.7079C34.0251 10.9286 33.8008 10.3224 33.3695 9.8894C32.9036 9.45642 32.2652 9.23126 31.4543 9.23126ZM30.9539 12.6259H27.1925V10.79H30.9539C31.6613 10.79 32.0064 11.1018 32.0064 11.7079C32.0064 12.3141 31.6613 12.6259 30.9539 12.6259Z" fill="#1D1D1D"/>
<path d="M39.512 13.2494C39.512 13.4572 39.512 13.6824 39.4947 13.9075C39.4775 14.1327 39.4257 14.3405 39.3394 14.5137C39.2532 14.7042 39.1324 14.8428 38.9599 14.964C38.7873 15.0852 38.5458 15.1372 38.2179 15.1372C37.9074 15.1372 37.6485 15.0852 37.476 14.964C37.3035 14.8428 37.1654 14.7042 37.0964 14.5137C37.0101 14.3232 36.9584 14.1327 36.9584 13.9075C36.9411 13.6824 36.9411 13.4572 36.9411 13.2494V9.23126H35.0259V13.5092C35.0259 14.6523 35.2847 15.5009 35.8196 16.0205C36.3372 16.5401 37.1482 16.8172 38.2352 16.8172C39.3222 16.8172 40.1159 16.5574 40.6508 16.0205C41.1684 15.5009 41.4272 14.6523 41.4272 13.5092V9.23126H39.5292V13.2494H39.512Z" fill="#1D1D1D"/>
<path d="M44.8435 9.23126H42.9455V16.6094H47.1383V14.9813H44.8435V9.23126Z" fill="#1D1D1D"/>
<path d="M51.5209 12.1063C51.3656 12.0543 51.2103 12.0024 51.055 11.9677C50.8997 11.9158 50.7617 11.8638 50.6236 11.8119C50.5029 11.7426 50.3993 11.6733 50.3131 11.5867C50.2268 11.5001 50.1923 11.3962 50.1923 11.2576C50.1923 11.0671 50.2786 10.9113 50.4338 10.79C50.5891 10.6688 50.7962 10.6168 51.0377 10.6168C51.2275 10.6168 51.4346 10.6515 51.6416 10.7381C51.8487 10.8247 52.0557 10.9459 52.2628 11.1191L53.022 9.62962C52.6596 9.4391 52.28 9.28323 51.8832 9.17931C51.4863 9.0754 51.1068 9.02344 50.7444 9.02344C50.3476 9.02344 50.0025 9.0754 49.6919 9.19663C49.3813 9.31787 49.1053 9.47374 48.8982 9.68158C48.6739 9.88941 48.5186 10.1492 48.3979 10.4436C48.2771 10.7381 48.2253 11.0671 48.2253 11.4308C48.2253 11.7946 48.2771 12.089 48.3979 12.3315C48.5186 12.5739 48.6567 12.7644 48.8465 12.9203C49.0363 13.0762 49.2433 13.1974 49.4849 13.3013C49.7264 13.3879 49.968 13.4745 50.2095 13.5611C50.4166 13.6304 50.5891 13.6997 50.7444 13.7517C50.8824 13.8036 51.0032 13.8729 51.1068 13.9422C51.193 14.0114 51.262 14.0807 51.2966 14.1673C51.3311 14.2539 51.3483 14.3405 51.3483 14.4618C51.3483 14.6523 51.2793 14.8081 51.124 14.9467C50.9687 15.0853 50.7444 15.1545 50.4338 15.1545C50.1578 15.1545 49.8817 15.0853 49.6056 14.964C49.3296 14.8428 49.0363 14.6523 48.7602 14.3925L47.9492 15.9339C48.7429 16.4881 49.6056 16.7652 50.5201 16.7652C50.9687 16.7652 51.3656 16.7133 51.7279 16.592C52.0902 16.4708 52.3836 16.2976 52.6251 16.0898C52.8667 15.8646 53.0565 15.6048 53.1773 15.3104C53.298 14.9987 53.367 14.6696 53.367 14.2886C53.367 13.7343 53.229 13.2667 52.9357 12.9203C52.6079 12.5912 52.142 12.3141 51.5209 12.1063Z" fill="#1D1D1D"/>
<path d="M58.6123 10.1665C58.2845 10.1665 57.9567 10.2185 57.6116 10.2704C57.232 10.3224 56.8524 10.3917 56.4383 10.3917C56.3003 10.3917 56.1795 10.3917 56.0587 10.3743L53.6949 16.6093H55.7309L56.1622 15.3277H58.8884L59.3197 16.6093H61.3557L58.9229 10.1838C58.8194 10.1665 58.7158 10.1665 58.6123 10.1665ZM56.6626 13.8729L57.5253 11.4135L58.388 13.8729H56.6626Z" fill="#1D1D1D"/>
<path d="M69.7066 11.3962C69.4996 10.9286 69.2235 10.5129 68.8612 10.1665C68.4988 9.82015 68.0675 9.54304 67.5671 9.3352C67.0668 9.14469 66.5146 9.04077 65.928 9.04077C65.3241 9.04077 64.7892 9.14469 64.2888 9.3352C63.7885 9.52572 63.3571 9.80283 63.012 10.1665C62.667 10.5302 62.3736 10.9286 62.1666 11.3962C61.9595 11.8638 61.8733 12.3834 61.8733 12.9203C61.8733 13.4746 61.9768 13.9768 62.1666 14.4444C62.3736 14.9121 62.6497 15.3277 63.012 15.6741C63.3744 16.0205 63.7885 16.2976 64.2888 16.5055C64.7892 16.696 65.3241 16.7999 65.928 16.7999C66.5146 16.7999 67.0668 16.696 67.5671 16.5055C68.0675 16.315 68.4988 16.0378 68.8612 15.6741C69.2235 15.3104 69.4996 14.9121 69.7066 14.4444C69.9137 13.9768 70 13.4572 70 12.9203C70 12.3661 69.8964 11.8638 69.7066 11.3962ZM67.8432 13.7344C67.7397 13.9768 67.5844 14.202 67.3946 14.3752C67.2048 14.5657 66.9805 14.7042 66.7389 14.8082C66.4974 14.9121 66.2213 14.964 65.9452 14.964C65.6692 14.964 65.4104 14.9121 65.1515 14.8082C64.91 14.7042 64.6857 14.5657 64.4959 14.3752C64.3061 14.1847 64.1508 13.9768 64.0473 13.7344C63.9438 13.4919 63.8747 13.2148 63.8747 12.9203C63.8747 12.6259 63.9265 12.3488 64.0473 12.1063C64.1508 11.8638 64.3061 11.6387 64.4959 11.4655C64.6857 11.275 64.91 11.1364 65.1515 11.0325C65.3931 10.9286 65.6692 10.8766 65.9452 10.8766C66.2213 10.8766 66.4974 10.9286 66.7389 11.0325C66.9805 11.1364 67.2048 11.275 67.3946 11.4655C67.5844 11.656 67.7397 11.8638 67.8432 12.1063C67.9467 12.3488 68.0157 12.6259 68.0157 12.9203C67.9985 13.2148 67.9467 13.4919 67.8432 13.7344Z" fill="#1D1D1D"/>
<path d="M59.4404 9.71625C59.4404 9.16203 59.4404 8.88492 59.4404 8.33069C58.0774 7.93234 56.9558 8.72904 55.5928 8.33069V9.71625C56.9731 10.1146 58.0774 9.33522 59.4404 9.71625Z" fill="#1D1D1D"/>
<path d="M14.9766 7.41272V5.80201H10.8874L15.3562 0.0519409H8.28198V1.67997H12.1814L7.69534 7.41272H14.9766Z" fill="#1D1D1D"/>
<path d="M27.1926 2.90966L31.2645 7.41272H33.1625V0.0519409H31.2645V4.55501L27.1926 0.0519409H25.2773V7.41272H27.1926V2.90966Z" fill="#1D1D1D"/>
<path d="M36.8204 0.0519409L34.0252 7.41272H36.0612L36.4925 6.13108H39.2187L39.6501 7.41272H41.686L38.8909 0.0519409H36.8204ZM36.9929 4.67624L37.8556 2.21688L38.7183 4.67624H36.9929Z" fill="#1D1D1D"/>
<path d="M52.953 7.11829C53.3843 6.91045 53.7812 6.65066 54.109 6.30427C54.4368 5.95788 54.6957 5.57686 54.8854 5.12655C55.0752 4.67624 55.1615 4.20862 55.1615 3.74099C55.1615 3.25604 55.0752 2.78842 54.8854 2.33811C54.6957 1.88781 54.4368 1.50678 54.109 1.16039C53.7812 0.831318 53.4016 0.554206 52.953 0.346372C52.5216 0.138538 52.0385 0.0519409 51.5381 0.0519409H45.827V7.41272H51.5381C52.0558 7.41272 52.5216 7.3088 52.953 7.11829ZM47.7422 5.80201V1.67997H48.1736C48.5014 1.67997 51.6762 1.73193 51.935 1.83585C52.1938 1.93976 52.4181 2.07832 52.5907 2.26883C52.7632 2.45935 52.9012 2.66718 53.0047 2.92697C53.1083 3.18677 53.1428 3.44656 53.1428 3.74099C53.1428 4.03542 53.091 4.31253 53.0047 4.57233C52.9185 4.8148 52.7804 5.03995 52.5907 5.23047C52.4181 5.42098 52.1938 5.55954 51.935 5.66345C51.6762 5.76737 48.5014 5.81933 48.1563 5.81933H47.7422V5.80201Z" fill="#1D1D1D"/>
<path d="M62.3047 5.80201H58.2845V4.52037H62.1839V2.90966H58.2845V1.67997H62.3047V0.0519409H56.3693V7.41272H62.3047V5.80201Z" fill="#1D1D1D"/>
<path d="M22.0508 13.6304C21.9473 13.8729 21.792 14.098 21.6022 14.2712C21.4124 14.4618 21.1881 14.6003 20.9465 14.7042C20.705 14.8081 20.4289 14.8601 20.1528 14.8601C19.8768 14.8601 19.6007 14.8081 19.3592 14.7042C19.1176 14.6003 18.8933 14.4618 18.7035 14.2712C18.5137 14.0807 18.3584 13.8729 18.2549 13.6304C18.1514 13.388 18.0824 13.1108 18.0824 12.8164H16.0809C16.0809 13.3706 16.1844 13.8729 16.3742 14.3405C16.5812 14.8081 16.8573 15.2238 17.2196 15.5702C17.582 15.9166 17.9961 16.1937 18.4964 16.4015C18.9968 16.5921 19.5317 16.696 20.1356 16.696C20.7222 16.696 21.2744 16.5921 21.7747 16.4015C22.2751 16.211 22.7065 15.9339 23.0688 15.5702C23.4311 15.2238 23.7072 14.8081 23.9142 14.3405C24.1213 13.8729 24.2076 13.3533 24.2076 12.8164H22.2061C22.2233 13.1108 22.1543 13.3706 22.0508 13.6304Z" fill="#1D1D1D"/>
<path d="M18.2376 3.06555C18.3412 2.82308 18.4964 2.59792 18.6862 2.42473C18.876 2.23421 19.1003 2.09566 19.3419 1.99174C19.5835 1.88782 19.8595 1.83587 20.1356 1.83587C20.4117 1.83587 20.6705 1.88782 20.9293 1.99174C21.1708 2.09566 21.3951 2.23421 21.5849 2.42473C21.7747 2.61524 21.93 2.82308 22.0335 3.06555C22.1371 3.30802 22.2061 3.58513 22.2061 3.87956H24.2076C24.2076 3.32534 24.104 2.82308 23.9142 2.35545C23.7072 1.88782 23.4311 1.47216 23.0688 1.12577C22.7065 0.779377 22.2924 0.502265 21.792 0.294431C21.2916 0.103917 20.7567 0 20.1528 0C19.5662 0 19.0141 0.103917 18.5137 0.294431C18.0133 0.484946 17.582 0.762057 17.2196 1.12577C16.8573 1.47216 16.5812 1.88782 16.3742 2.35545C16.1671 2.82308 16.0809 3.34266 16.0809 3.87956H18.0824C18.0824 3.58513 18.1341 3.30802 18.2376 3.06555Z" fill="#1D1D1D"/>
</svg>
