<svg width="90" height="85" viewBox="0 0 90 85" fill="none" xmlns="http://www.w3.org/2000/svg">
<path d="M82.5107 71.5184L56.8378 15.2428C55.6681 12.7045 53.2054 11.0948 50.3734 11.0948C47.5414 11.0948 45.0788 12.6426 43.909 15.2428L24.3927 57.2174C23.4077 59.3223 23.4077 61.7367 24.3927 63.8417C25.3778 65.9466 27.2247 67.4943 29.5027 68.0515L75.5538 79.8143C76.1694 79.9381 76.7851 80 77.4007 80C79.063 79.9381 80.6021 79.1333 81.6488 77.8332C83.1879 76.0378 83.4957 73.6233 82.5107 71.5184Z" fill="#6A49EF"/>
<path d="M62.8787 77.2862L39.9476 26.7336C38.9028 24.4534 36.7031 23.0074 34.1736 23.0074C31.644 23.0074 29.4444 24.3978 28.3995 26.7336L10.9675 64.4395C10.0877 66.3304 10.0877 68.4993 10.9675 70.3902C11.8474 72.281 13.4971 73.6714 15.5317 74.1719L56.6647 84.7384C57.2147 84.8497 57.7646 84.9053 58.3145 84.9053C59.7992 84.8497 61.174 84.1267 62.1088 82.9588C63.4836 81.346 63.7585 79.1771 62.8787 77.2862Z" fill="#48FEA7"/>
<path d="M84.0343 24.2858L76.5568 8.07078C76.2161 7.33941 75.4988 6.87561 74.674 6.87561C73.8491 6.87561 73.1318 7.32157 72.7911 8.07078L67.1068 20.1651C66.8199 20.7716 66.8199 21.4673 67.1068 22.0738C67.3937 22.6803 67.9316 23.1263 68.5951 23.2868L82.0081 26.6761C82.1874 26.7118 82.3667 26.7296 82.546 26.7296C83.0302 26.7118 83.4785 26.4799 83.7833 26.1053C84.2316 25.588 84.3212 24.8923 84.0343 24.2858Z" fill="white"/>
<path d="M16.7142 61.0531L10.7322 47.6996C10.4596 47.0973 9.88579 46.7153 9.2259 46.7153C8.56601 46.7153 7.9922 47.0826 7.71963 47.6996L3.17214 57.6597C2.94262 58.1591 2.94262 58.732 3.17214 59.2315C3.40167 59.731 3.83203 60.0983 4.36281 60.2305L15.0932 63.0216C15.2366 63.051 15.3801 63.0657 15.5235 63.0657C15.9109 63.051 16.2695 62.86 16.5134 62.5515C16.872 62.1255 16.9437 61.5526 16.7142 61.0531Z" fill="white"/>
<path d="M84.2794 63.2711L84.2794 63.2711L84.2815 63.2756C84.6608 64.0744 84.5439 64.9825 83.9498 65.6656L83.9447 65.6714L83.9398 65.6774C83.5361 66.1717 82.947 66.4742 82.316 66.5C82.0663 66.4994 81.8159 66.4747 81.5644 66.4257L59.878 60.9662L59.878 60.9661L59.8731 60.965C58.9481 60.742 58.1999 60.1241 57.7998 59.2815C57.4001 58.4397 57.4001 57.4759 57.7998 56.634L57.8003 56.6329L66.9964 37.1397L66.9964 37.1397L66.999 37.1339C67.4656 36.1116 68.4436 35.5 69.5902 35.5C70.7305 35.5 71.7139 36.1352 72.1829 37.1373C72.183 37.1376 72.1831 37.1379 72.1832 37.1381L84.2794 63.2711Z" stroke="white"/>
<path d="M27.6607 16.594L27.6606 16.594L27.6627 16.5984C27.8476 16.9925 27.7909 17.4363 27.5019 17.7726L27.4968 17.7785L27.492 17.7845C27.2961 18.0273 27.0142 18.1724 26.7166 18.1861C26.59 18.1855 26.4628 18.1729 26.3345 18.1479L13.8289 14.9614L13.8289 14.9613L13.824 14.9601C13.3549 14.8457 12.9739 14.5287 12.769 14.0919C12.5643 13.6556 12.5643 13.1564 12.769 12.7201L12.7695 12.719L18.0749 1.33609L18.0749 1.33611L18.0775 1.33041C18.3125 0.809365 18.8004 0.5 19.379 0.5C19.9515 0.5 20.4448 0.820931 20.6821 1.33379C20.6822 1.33404 20.6823 1.3343 20.6824 1.33455L27.6607 16.594Z" stroke="white"/>
</svg>
