<svg width="74" height="80" viewBox="0 0 74 80" fill="none" xmlns="http://www.w3.org/2000/svg">
<path d="M49.1807 29.2615L72.9521 29.2655C76.7176 17.2628 70.0144 7.52761 57.9825 7.52761L55.9932 7.52761L49.1784 29.2586L25.407 29.2545L10.1738 76.3132C9.60314 78.1322 10.9414 79.9879 12.8221 79.9879L32.795 79.9919L49.1807 29.2615Z" fill="#6A49EF"/>
<path d="M32.795 79.9959L52.9487 80C55.1068 80 57.0116 78.5848 57.6667 76.5007L72.9562 29.2667L49.1816 29.2626L32.795 79.9959Z" fill="#6A49EF"/>
<path d="M55.9932 7.52466L49.1784 29.2586L25.403 29.2544C29.1644 17.2517 41.968 7.52466 53.9999 7.52466L55.9932 7.52466Z" fill="#6A49EF"/>
<path fill-rule="evenodd" clip-rule="evenodd" d="M45.9523 0L43.0677 9.1986H42.4704L38.5394 21.7337H38.5388L42.4704 9.19678H41.2438C34.1216 9.19678 26.56 14.7353 23.934 21.7312L15.3621 21.7298C19.1236 9.72701 31.9271 0 43.9591 0H45.9523ZM38.5388 21.7338H38.5394L38.2767 22.5715L38.2761 22.5714L38.5388 21.7338ZM15.3661 21.7299L23.934 21.7313C23.83 22.0083 23.7338 22.2876 23.6456 22.5689L23.6481 22.569L20.1636 33.6823C19.8125 34.8017 20.636 35.9437 21.7934 35.9437L34.0844 35.9462L38.2781 22.5733L38.8696 22.5734L38.8694 22.5741L38.2787 22.574L34.0844 35.9486L34.5494 35.9487L32.5448 42.155C32.0626 41.9291 31.4943 41.8043 30.8565 41.8043H30.428L28.9602 46.4013L28.96 46.4013L30.428 41.8037H29.9987C27.4072 41.8037 24.6495 43.8613 23.8394 46.4004L23.8402 46.4004L22.6207 50.2206C22.4978 50.6054 22.786 50.998 23.1911 50.998L26.1767 50.9986L22.7377 58.2825C22.5435 58.6912 22.5435 59.1599 22.7377 59.5686C22.9319 59.9772 23.296 60.2777 23.745 60.3859L26.4376 61.0632L22.7541 72.4673L2.78123 72.4632C0.900485 72.4632 -0.437732 70.6075 0.132921 68.7885L15.3661 21.7299ZM26.4388 61.0635L32.8233 62.6695C32.9447 62.6935 33.0661 62.7055 33.1874 62.7055C33.5151 62.6935 33.8185 62.5373 34.0249 62.2849C34.3283 61.9363 34.389 61.4676 34.1948 61.0589L29.6259 51.1961L29.6892 51.0001L31.8337 51.0005C32.2985 51.0005 32.7088 50.7012 32.8499 50.2603L34.0816 46.403L31.1742 46.4025L31.1743 46.4023L34.0807 46.4027C34.692 44.4891 34.0224 42.8479 32.546 42.1555L34.5507 35.9487L46.4867 35.9511C47.8147 35.9511 48.9869 35.0802 49.39 33.7977L52.9092 22.5765L38.8707 22.5741L38.8709 22.5734L52.9067 22.5758C52.9947 22.2952 53.0734 22.0166 53.143 21.7403L62.9153 21.742L47.6258 68.9761C46.9708 71.0601 45.0659 72.4753 42.9079 72.4753L22.7542 72.4713L26.4388 61.0635ZM31.173 46.4023L28.9607 46.4019L28.0234 49.3375L28.0237 49.3375L28.9609 46.4021L31.1729 46.4025L31.173 46.4023ZM29.6879 51.0001L29.5351 51.0001L29.6251 51.1944L29.6879 51.0001ZM43.6946 9.1986C50.8172 9.1986 54.9053 14.7424 53.1433 21.7392L62.9112 21.7409C66.6767 9.73811 59.9736 0.00295469 47.9416 0.00295416L45.9524 0.00295408L43.0686 9.1986H43.6946Z" fill="#48FEA7"/>
</svg>
