<svg width="84" height="80" viewBox="0 0 84 80" fill="none" xmlns="http://www.w3.org/2000/svg">
<path d="M48.6826 30.6135L82.5089 30.6192C87.8671 13.7149 78.3286 0.0041613 61.2074 0.00416055L58.3768 0.00416043L48.6795 30.6095L14.8533 30.6037L6.79589 56.0378C5.98386 58.5995 7.88812 61.213 10.5644 61.213L38.9853 61.2188L48.6826 30.6135Z" fill="#6A49EF"/>
<path d="M38.9854 61.2244L67.6637 61.2301C70.7345 61.2301 73.4451 59.237 74.3772 56.3019L82.5146 30.6208L48.684 30.6151L38.9854 61.2244Z" fill="#6A49EF"/>
<path d="M58.3767 -1.11787e-06L48.6782 30.6093L14.8475 30.6036C20.2 13.6992 38.4192 -1.98856e-06 55.5404 -1.24161e-06L58.3767 -1.11787e-06Z" fill="#6A49EF"/>
<path d="M0.00537109 17.0791L0.00892458 5.11911C0.00892458 3.99285 1.11247 3.1914 2.19291 3.53387L10.8418 6.26656C12.0804 6.65846 12.9191 7.80061 12.9191 9.09105L12.9156 21.1604L0.00537109 17.0791Z" fill="#48FEA7"/>
<path d="M0 29.1485L0.00355349 17.0791L12.9138 21.1587L12.9102 33.1187C12.9102 34.2449 11.8067 35.0464 10.7262 34.7039L2.07736 31.9712C0.84054 31.5793 0 30.4372 0 29.1485Z" fill="#48FEA7"/>
<path d="M16.6796 22.4171L16.6831 10.4571C16.6831 9.33086 17.7867 8.52942 18.8671 8.87188L27.516 11.6046C28.7546 11.9965 29.5933 13.1386 29.5933 14.4291L29.5898 26.4985L16.6796 22.4171Z" fill="#48FEA7"/>
<path d="M16.6742 34.4864L16.6777 22.417L29.588 26.4966L29.5844 38.4566C29.5844 39.5828 28.4809 40.3843 27.4004 40.0418L18.7516 37.3091C17.5147 36.9172 16.6742 35.7751 16.6742 34.4864Z" fill="#48FEA7"/>
<path d="M33.0391 27.4411L33.0426 15.4812C33.0426 14.3549 34.1462 13.5535 35.2266 13.8959L43.8755 16.6286C45.1141 17.0205 45.9528 18.1627 45.9528 19.4531L45.9493 31.5225L33.0391 27.4411Z" fill="#48FEA7"/>
<path d="M33.0337 39.5104L33.0372 27.441L45.9475 31.5207L45.9439 43.4806C45.9439 44.6069 44.8404 45.4083 43.7599 45.0659L35.1111 42.3332C33.8742 41.9413 33.0337 40.7991 33.0337 39.5104Z" fill="#48FEA7"/>
<path d="M0.00537109 51.9331L0.00892458 39.9731C0.00892458 38.8469 1.11247 38.0454 2.19291 38.3879L10.8418 41.1206C12.0804 41.5125 12.9191 42.6546 12.9191 43.9451L12.9156 56.0144L0.00537109 51.9331Z" fill="#48FEA7"/>
<path d="M0 64.0025L0.00355349 51.9331L12.9138 56.0127L12.9102 67.9727C12.9102 69.0989 11.8067 69.9004 10.7262 69.5579L2.07736 66.8252C0.84054 66.4333 0 65.2912 0 64.0025Z" fill="#48FEA7"/>
<path d="M16.6796 57.2712L16.6831 45.3113C16.6831 44.185 17.7867 43.3835 18.8671 43.726L27.516 46.4587C28.7546 46.8506 29.5933 47.9928 29.5933 49.2832L29.5898 61.3526L16.6796 57.2712Z" fill="#48FEA7"/>
<path d="M16.6742 69.3406L16.6777 57.2712L29.588 61.3509L29.5844 73.3108C29.5844 74.4371 28.4809 75.2385 27.4004 74.8961L18.7516 72.1634C17.5147 71.7715 16.6742 70.6293 16.6742 69.3406Z" fill="#48FEA7"/>
<path d="M33.0391 62.2951L33.0426 50.3352C33.0426 49.2089 34.1462 48.4075 35.2266 48.7499L43.8755 51.4826C45.1141 51.8745 45.9528 53.0167 45.9528 54.3071L45.9493 66.3765L33.0391 62.2951Z" fill="#48FEA7"/>
<path d="M33.0337 74.3646L33.0372 62.2952L45.9475 66.3748L45.9439 78.3347C45.9439 79.461 44.8404 80.2625 43.7599 79.92L35.1111 77.1873C33.8742 76.7954 33.0337 75.6532 33.0337 74.3646Z" fill="#48FEA7"/>
</svg>
