<svg width="86" height="80" viewBox="0 0 86 80" fill="none" xmlns="http://www.w3.org/2000/svg">
<path d="M54.3275 36.5069L54.3334 1.54136C36.8462 -3.99736 22.6628 5.86238 22.6628 23.5603V26.4863L54.3234 36.5102L54.3174 71.4757L80.6285 79.8045C83.2786 80.6439 85.9822 78.6755 85.9822 75.9091L85.9881 46.5308L54.3275 36.5069Z" fill="#6A49EF"/>
<path d="M85.9939 46.5308L85.9999 16.8865C85.9999 13.7123 83.938 10.9104 80.9017 9.94689L54.3351 1.53538L54.3292 36.5055L85.9939 46.5308Z" fill="#6A49EF"/>
<path d="M22.6584 26.4863L54.3232 36.5115L54.3173 71.4817C36.8301 65.9489 22.6584 47.1161 22.6584 29.4182V26.4863Z" fill="#6A49EF"/>
<path fill-rule="evenodd" clip-rule="evenodd" d="M73.54 41.6887L26.5564 60.5463C24.7882 61.2637 22.8179 60.905 21.5044 59.5727C20.494 58.599 19.9383 57.3179 19.9383 55.9344C19.9383 55.4732 19.9888 54.9607 20.1404 54.4483L22.0504 48.2401L3.16359 48.2345C1.02365 48.2345 -0.49915 46.1429 0.151553 44.095L5.34378 27.7019C6.0884 25.3576 8.25853 23.7644 10.7071 23.7644L29.5792 23.7699L31.76 16.6819C32.3157 14.8371 33.6292 13.351 35.3974 12.6336C37.1656 11.865 39.1359 11.9675 40.8031 12.8899L74.1463 30.9788C76.1671 32.0549 77.3796 34.1559 77.228 36.5131C77.0764 38.8703 75.6619 40.8175 73.54 41.6887Z" fill="#48FEA7"/>
</svg>
