<svg width="49" height="48" viewBox="0 0 49 48" fill="none" xmlns="http://www.w3.org/2000/svg">
<path fill-rule="evenodd" clip-rule="evenodd" d="M14.5952 33.8673L3.34742 33.864C1.62666 33.864 0.402159 32.1765 0.9254 30.5244L5.10055 17.2991C5.69931 15.4079 7.44435 14.1226 9.41324 14.1226L14.6038 14.1241L14.6072 2.55114C14.6072 0.825596 16.29 -0.402291 17.9376 0.122403L31.1263 4.30913C33.015 4.90956 34.2941 6.65944 34.2941 8.63651L34.2925 14.1327L46.1263 14.1362C47.8471 14.1362 49.0715 15.8237 48.5483 17.4758L44.3732 30.7011C43.7744 32.595 42.0294 33.8776 40.0578 33.8776L34.2838 33.8759L34.2804 45.4489C34.2804 47.1744 32.5976 48.4023 30.95 47.8776L17.7613 43.6909C15.8753 43.0904 14.5936 41.3406 14.5936 39.3662L14.5952 33.8673Z" fill="url(#paint0_linear)"/>
<defs>
<linearGradient id="paint0_linear" x1="24.7369" y1="0" x2="24.7369" y2="48" gradientUnits="userSpaceOnUse">
<stop stop-color="#48FEA7"/>
<stop offset="1" stop-color="#48FEA7" stop-opacity="0.25"/>
</linearGradient>
</defs>
</svg>
