<svg width="40" height="27" viewBox="0 0 40 27" fill="none" xmlns="http://www.w3.org/2000/svg">
<path d="M2.6301 2.65582V23.5566H4.94712V4.98162H7.26415V23.5566H9.58118V3.80301L8.40701 2.65582H2.6301Z" fill="white"/>
<path d="M14.2152 2.65582H11.8981V23.5566H14.2152V2.65582Z" fill="white"/>
<path d="M23.4833 3.80301L22.3092 2.65582H16.5323V23.5566H18.8493V4.98162H21.1663V19.5179H23.4833V3.80301Z" fill="white"/>
<path d="M25.769 21.2308H23.7338H23.4833H21.1662H21.1349V23.5566H21.1662H23.4833H27.4754L28.086 22.9909V2.65582H25.769V21.2308Z" fill="white"/>
<path d="M36.7436 2.65582H30.9667L30.3875 3.23727V23.5566H32.7045V16.5792H35.0215V23.5566H37.3385V3.23727L36.7436 2.65582ZM35.0372 14.2534H32.7201V4.98162H35.0372V14.2534Z" fill="white"/>
<path d="M39.9843 26.2124H0V0H40V26.2124H39.9843ZM1.04892 25.1438H38.9198V1.06861H1.04892V25.1438Z" fill="white"/>
</svg>
