<svg width="24" height="24" viewBox="0 0 24 24" fill="none" xmlns="http://www.w3.org/2000/svg">
<path d="M11.9995 14.4023C13.3234 14.4023 14.4028 13.3249 14.4028 12C14.4028 11.477 14.2317 10.9941 13.9484 10.5997C13.5119 9.9945 12.8024 9.59766 12.0009 9.59766C11.199 9.59766 10.49 9.99401 10.0525 10.5992C9.76829 10.9936 9.59863 11.4765 9.59815 11.9995C9.5967 13.3244 10.6751 14.4023 11.9995 14.4023Z" fill="white"/>
<path d="M17.2455 9.06118V7.04749V6.7478L16.9444 6.74877L14.9316 6.75505L14.9394 9.06892L17.2455 9.06118Z" fill="white"/>
<path d="M12 0C5.38323 0 0 5.38323 0 12C0 18.6163 5.38323 24 12 24C18.6163 24 24 18.6163 24 12C24 5.38323 18.6173 0 12 0ZM18.8246 10.5997V16.1874C18.8246 17.6428 17.6413 18.8256 16.1869 18.8256H7.8131C6.35817 18.8256 5.17538 17.6428 5.17538 16.1874V10.5997V7.81358C5.17538 6.35866 6.35817 5.17586 7.8131 5.17586H16.1864C17.6413 5.17586 18.8246 6.35866 18.8246 7.81358V10.5997Z" fill="white"/>
<path d="M15.733 11.9999C15.733 14.0576 14.0587 15.7329 12 15.7329C9.94136 15.7329 8.26747 14.0576 8.26747 11.9999C8.26747 11.505 8.36607 11.0317 8.54202 10.5996H6.50464V16.1873C6.50464 16.9094 7.09096 17.4943 7.81262 17.4943H16.1859C16.9066 17.4943 17.4939 16.9094 17.4939 16.1873V10.5996H15.4556C15.633 11.0317 15.733 11.505 15.733 11.9999Z" fill="white"/>
</svg>
