<svg width="224" height="79" viewBox="0 0 224 79" fill="none" xmlns="http://www.w3.org/2000/svg">
<path d="M104.408 7.89979C103.938 7.89979 103.622 7.78209 103.462 7.55016C103.302 7.31822 103.222 7.01705 103.222 6.65011C103.222 6.34548 103.302 6.07547 103.462 5.84353C103.622 5.61159 103.938 5.4939 104.408 5.4939C104.877 5.4939 105.193 5.61159 105.353 5.84353C105.513 6.07893 105.593 6.34548 105.593 6.65011C105.593 7.01705 105.513 7.31476 105.353 7.55016C105.193 7.78209 104.877 7.89979 104.408 7.89979ZM103.382 21.6498V9.23948H105.433V21.6498H103.382Z" fill="white"/>
<path d="M114.369 21.9523C113.107 21.9523 112.056 21.6788 111.212 21.1284C110.368 20.578 109.739 19.8234 109.321 18.8575C108.903 17.8917 108.696 16.8117 108.696 15.6104C108.696 13.7619 109.176 12.2353 110.136 11.0375C111.096 9.83976 112.518 9.23742 114.394 9.23742C115.271 9.23742 116.002 9.37589 116.587 9.64937C117.173 9.92284 117.649 10.2552 118.013 10.6394C118.377 11.0271 118.642 11.3802 118.813 11.7056C118.984 12.031 119.089 12.2457 119.133 12.346H119.199L119.231 4.48102H121.344V21.6442H119.559L119.239 18.8991H119.173C119.129 18.9995 119.013 19.2141 118.82 19.5395C118.628 19.8649 118.344 20.2111 117.973 20.5746C117.598 20.9415 117.118 21.26 116.533 21.5334C115.944 21.8138 115.224 21.9523 114.369 21.9523ZM114.882 20.2145C116.14 20.2145 117.173 19.8026 117.973 18.9787C118.773 18.1548 119.173 17.0332 119.173 15.6104C119.173 14.2085 118.798 13.0938 118.053 12.2733C117.304 11.4495 116.3 11.0375 115.042 11.0375C114.038 11.0375 113.216 11.2556 112.576 11.6918C111.936 12.128 111.467 12.6922 111.165 13.3846C110.867 14.0769 110.718 14.8177 110.718 15.6104C110.718 16.3824 110.856 17.1198 111.136 17.8225C111.412 18.5252 111.852 19.0999 112.449 19.5464C113.045 19.993 113.856 20.2145 114.882 20.2145Z" fill="white"/>
<path d="M129.968 21.9531C128.539 21.9531 127.357 21.6451 126.429 21.0219C125.502 20.4023 124.818 19.5992 124.378 18.6126C123.942 17.626 123.72 16.6048 123.72 15.549C123.72 14.3893 123.96 13.33 124.44 12.3642C124.92 11.3984 125.626 10.6299 126.553 10.0621C127.48 9.49441 128.597 9.20709 129.899 9.20709C131.564 9.20709 132.954 9.71943 134.063 10.7476C135.172 11.7757 135.772 13.15 135.856 14.8774C135.878 14.957 135.889 15.182 135.889 15.549H125.702C125.702 17.0548 126.069 18.2179 126.808 19.0418C127.546 19.8657 128.586 20.2777 129.932 20.2777C130.935 20.2777 131.794 20.0354 132.51 19.5472C133.227 19.0591 133.667 18.398 133.841 17.5637H135.86C135.645 18.8238 135.016 19.8692 133.968 20.7035C132.925 21.5377 131.59 21.9531 129.968 21.9531ZM125.771 14.5762H133.779C133.779 14.1504 133.656 13.6416 133.412 13.0531C133.165 12.4646 132.761 11.9522 132.194 11.5126C131.626 11.0764 130.852 10.8583 129.87 10.8583C128.971 10.8583 128.237 11.0418 127.659 11.4087C127.08 11.7757 126.644 12.243 126.346 12.8107C126.048 13.375 125.858 13.967 125.771 14.5762Z" fill="white"/>
<path d="M138.488 21.6474V9.23712H140.248L140.601 12.318H140.666C140.688 12.2177 140.783 12.003 140.954 11.6776C141.124 11.3522 141.386 11.0026 141.739 10.6253C142.092 10.2479 142.557 9.92254 143.132 9.64907C143.71 9.37559 144.445 9.23712 145.343 9.23712C146.474 9.23712 147.365 9.43098 148.016 9.81523C148.667 10.2029 149.154 10.7153 149.475 11.3557C149.795 11.9961 149.998 12.6815 150.082 13.4154C150.165 14.1458 150.209 14.8486 150.209 15.5201V21.6474H148.223V15.5201C148.223 14.177 147.983 13.09 147.503 12.2592C147.023 11.4249 146.078 11.0095 144.67 11.0095C143.71 11.0095 142.925 11.2276 142.317 11.6638C141.71 12.1 141.27 12.6815 141.004 13.4016C140.739 14.1216 140.604 14.9109 140.604 15.7659V21.6508H138.488V21.6474Z" fill="white"/>
<path d="M156.039 21.6474C155.25 21.6474 154.697 21.4432 154.388 21.0382C154.078 20.6331 153.922 20.0723 153.922 19.3627V10.7015H151.871V9.23714C152.555 9.23714 153.06 9.18176 153.391 9.07098C153.722 8.96021 153.929 8.67981 154.017 8.23324C154.1 7.78668 154.144 7.05626 154.144 6.03851H155.904V9.24061H158.915V10.7049H155.904V20.0654H158.948V21.6509H156.039V21.6474Z" fill="white"/>
<path d="M163.243 7.89979C162.774 7.89979 162.457 7.78209 162.297 7.55016C162.137 7.31822 162.057 7.01705 162.057 6.65011C162.057 6.34548 162.137 6.07547 162.297 5.84353C162.457 5.61159 162.774 5.4939 163.243 5.4939C163.712 5.4939 164.028 5.61159 164.188 5.84353C164.348 6.07893 164.428 6.34548 164.428 6.65011C164.428 7.01705 164.348 7.31476 164.188 7.55016C164.028 7.78209 163.712 7.89979 163.243 7.89979ZM162.221 21.6498V9.23948H164.272V21.6498H162.221Z" fill="white"/>
<path d="M173.204 21.9523C171.942 21.9523 170.891 21.6788 170.047 21.1284C169.204 20.578 168.574 19.8234 168.156 18.8575C167.738 17.8917 167.531 16.8117 167.531 15.6104C167.531 13.7619 168.011 12.2353 168.971 11.0375C169.931 9.83976 171.353 9.23742 173.229 9.23742C174.106 9.23742 174.837 9.37589 175.422 9.64937C176.008 9.92284 176.484 10.2552 176.848 10.6394C177.212 11.0271 177.477 11.3802 177.648 11.7056C177.819 12.031 177.925 12.2457 177.968 12.346H178.034L178.066 4.48102H180.179V21.6442H178.386L178.066 18.8991H178.001C177.957 18.9995 177.841 19.2141 177.648 19.5395C177.455 19.8649 177.172 20.2111 176.801 20.5746C176.426 20.9415 175.946 21.26 175.361 21.5334C174.779 21.8138 174.059 21.9523 173.204 21.9523ZM173.717 20.2145C174.975 20.2145 176.008 19.8026 176.808 18.9787C177.608 18.1548 178.008 17.0332 178.008 15.6104C178.008 14.2085 177.634 13.0938 176.888 12.2733C176.139 11.4495 175.135 11.0375 173.877 11.0375C172.873 11.0375 172.051 11.2556 171.411 11.6918C170.771 12.128 170.302 12.6922 170 13.3846C169.702 14.0769 169.553 14.8177 169.553 15.6104C169.553 16.3824 169.691 17.1198 169.971 17.8225C170.247 18.5252 170.687 19.0999 171.284 19.5464C171.88 19.993 172.691 20.2145 173.717 20.2145Z" fill="white"/>
<path d="M187.462 21.9531C186.265 21.9531 185.283 21.6693 184.516 21.0981C183.749 20.5269 183.174 19.7653 182.803 18.8099C182.429 17.8545 182.243 16.7675 182.243 15.549C182.243 13.6796 182.676 12.153 183.541 10.976C184.407 9.79905 185.713 9.20709 187.465 9.20709C188.364 9.20709 189.117 9.33864 189.724 9.60519C190.331 9.86828 190.822 10.2145 191.197 10.6402C191.571 11.066 191.844 11.5264 192.015 12.0215L192.048 11.8622V9.21055H194.161V21.6485H192.401L192.08 19.2842L192.015 19.2392C191.822 19.6476 191.546 20.0561 191.182 20.475C190.819 20.8904 190.335 21.2435 189.724 21.5274C189.109 21.8112 188.356 21.9531 187.462 21.9531ZM188.262 20.2154C189.586 20.2154 190.542 19.793 191.128 18.9484C191.713 18.1037 192.008 16.9821 192.008 15.5801C192.008 14.0777 191.702 12.9423 191.095 12.1807C190.488 11.4191 189.542 11.0383 188.262 11.0383C186.851 11.0383 185.843 11.4641 185.236 12.3192C184.629 13.1742 184.323 14.2508 184.323 15.5524C184.323 16.9129 184.632 18.031 185.251 18.9068C185.869 19.7792 186.873 20.2154 188.262 20.2154Z" fill="white"/>
<path d="M202.481 21.9523C201.219 21.9523 200.168 21.6788 199.324 21.1284C198.48 20.578 197.851 19.8234 197.433 18.8575C197.015 17.8917 196.807 16.8117 196.807 15.6104C196.807 13.7619 197.288 12.2353 198.248 11.0375C199.208 9.83976 200.63 9.23742 202.506 9.23742C203.383 9.23742 204.114 9.37589 204.699 9.64937C205.285 9.92284 205.761 10.2552 206.125 10.6394C206.489 11.0271 206.754 11.3802 206.925 11.7056C207.096 12.031 207.201 12.2457 207.245 12.346H207.311L207.343 4.48102H209.456V21.6442H207.663L207.343 18.8991H207.278C207.234 18.9995 207.118 19.2141 206.925 19.5395C206.732 19.8649 206.449 20.2111 206.078 20.5746C205.703 20.9415 205.223 21.26 204.638 21.5334C204.056 21.8138 203.336 21.9523 202.481 21.9523ZM202.994 20.2145C204.252 20.2145 205.285 19.8026 206.085 18.9787C206.885 18.1548 207.285 17.0332 207.285 15.6104C207.285 14.2085 206.91 13.0938 206.165 12.2733C205.416 11.4495 204.412 11.0375 203.154 11.0375C202.15 11.0375 201.328 11.2556 200.688 11.6918C200.048 12.128 199.579 12.6922 199.277 13.3846C198.979 14.0769 198.83 14.8177 198.83 15.6104C198.83 16.3824 198.968 17.1198 199.248 17.8225C199.524 18.5252 199.964 19.0999 200.561 19.5464C201.157 19.993 201.968 20.2145 202.994 20.2145Z" fill="white"/>
<path d="M218.079 21.9531C216.65 21.9531 215.468 21.6451 214.541 21.0219C213.613 20.4023 212.93 19.5992 212.49 18.6126C212.053 17.626 211.831 16.6048 211.831 15.549C211.831 14.3893 212.071 13.33 212.551 12.3642C213.031 11.3984 213.737 10.6299 214.664 10.0621C215.592 9.49441 216.708 9.20709 218.01 9.20709C219.676 9.20709 221.065 9.71943 222.174 10.7476C223.283 11.7757 223.884 13.15 223.967 14.8774C223.989 14.957 224 15.182 224 15.549H213.813C213.813 17.0548 214.181 18.2179 214.919 19.0418C215.657 19.8657 216.697 20.2777 218.043 20.2777C219.047 20.2777 219.905 20.0354 220.621 19.5472C221.338 19.0591 221.778 18.398 221.952 17.5637H223.971C223.756 18.8238 223.127 19.8692 222.08 20.7035C221.036 21.5377 219.701 21.9531 218.079 21.9531ZM213.882 14.5762H221.891C221.891 14.1504 221.767 13.6416 221.523 13.0531C221.276 12.4646 220.872 11.9522 220.305 11.5126C219.738 11.0764 218.963 10.8583 217.981 10.8583C217.083 10.8583 216.348 11.0418 215.77 11.4087C215.192 11.7757 214.755 12.243 214.457 12.8107C214.162 13.375 213.97 13.967 213.882 14.5762Z" fill="white"/>
<path d="M108.699 41.3549C107.437 41.3549 106.386 41.0814 105.542 40.531C104.698 39.9806 104.069 39.2259 103.651 38.2601C103.232 37.2943 103.025 36.2142 103.025 35.013C103.025 33.1645 103.505 31.6379 104.465 30.4401C105.425 29.2423 106.847 28.64 108.724 28.64C109.6 28.64 110.331 28.7785 110.917 29.052C111.502 29.3254 111.979 29.6578 112.343 30.042C112.706 30.4297 112.972 30.7828 113.143 31.1082C113.314 31.4336 113.419 31.6482 113.463 31.7486H113.528L113.561 23.8836H115.674V41.0468H113.881L113.561 38.3017H113.495C113.452 38.402 113.335 38.6167 113.143 38.9421C112.95 39.2675 112.666 39.6136 112.295 39.9771C111.921 40.3441 111.441 40.6626 110.855 40.936C110.273 41.2199 109.553 41.3549 108.699 41.3549ZM109.211 39.6171C110.47 39.6171 111.502 39.2052 112.303 38.3813C113.103 37.5574 113.503 36.4358 113.503 35.013C113.503 33.611 113.128 32.4964 112.383 31.6759C111.633 30.852 110.63 30.4401 109.371 30.4401C108.368 30.4401 107.546 30.6582 106.906 31.0944C106.266 31.5305 105.796 32.0948 105.495 32.7871C105.196 33.4795 105.047 34.2203 105.047 35.013C105.047 35.785 105.185 36.5223 105.465 37.2251C105.742 37.9278 106.182 38.5024 106.778 38.949C107.375 39.3956 108.186 39.6171 109.211 39.6171Z" fill="white"/>
<path d="M120.006 27.3002C119.537 27.3002 119.22 27.1825 119.06 26.9505C118.9 26.7186 118.82 26.4174 118.82 26.0505C118.82 25.7459 118.9 25.4759 119.06 25.2439C119.22 25.012 119.537 24.8943 120.006 24.8943C120.475 24.8943 120.791 25.012 120.951 25.2439C121.111 25.4793 121.191 25.7459 121.191 26.0505C121.191 26.4174 121.111 26.7151 120.951 26.9505C120.791 27.1859 120.475 27.3002 120.006 27.3002ZM118.98 41.0501V28.6399H121.031V41.0501H118.98Z" fill="white"/>
<path d="M125.791 46.1752V44.3163H133.745V38.3102H133.679C133.636 38.4106 133.523 38.6252 133.341 38.9506C133.159 39.276 132.883 39.6222 132.508 39.9857C132.134 40.3526 131.654 40.6711 131.068 40.9446C130.479 41.218 129.77 41.3565 128.937 41.3565C127.679 41.3565 126.624 41.0761 125.78 40.5188C124.936 39.9614 124.3 39.2033 123.874 38.2479C123.449 37.2925 123.234 36.2159 123.234 35.0146C123.234 33.1453 123.718 31.6152 124.693 30.4279C125.664 29.2405 127.089 28.6451 128.97 28.6451C129.846 28.6451 130.577 28.7836 131.163 29.057C131.748 29.3305 132.221 29.6628 132.574 30.0471C132.926 30.4348 133.188 30.7879 133.359 31.1133C133.53 31.4387 133.636 31.6533 133.679 31.7537H133.745V28.6451H135.858V43.1878C135.858 44.164 135.665 44.9048 135.279 45.4136C134.894 45.9225 134.199 46.1752 133.199 46.1752H125.791ZM129.388 39.6187C130.668 39.6187 131.704 39.2068 132.494 38.3829C133.283 37.559 133.679 36.4374 133.679 35.0146C133.679 33.6126 133.305 32.498 132.559 31.6775C131.81 30.8537 130.817 30.4417 129.581 30.4417C128.555 30.4417 127.729 30.6598 127.097 31.096C126.467 31.5322 126.002 32.0964 125.704 32.7888C125.406 33.4811 125.256 34.2219 125.256 35.0146C125.256 35.7866 125.391 36.524 125.656 37.2267C125.922 37.9294 126.362 38.5041 126.969 38.9506C127.58 39.3972 128.384 39.6187 129.388 39.6187Z" fill="white"/>
<path d="M140.216 27.3002C139.747 27.3002 139.43 27.1825 139.27 26.9505C139.11 26.7186 139.03 26.4174 139.03 26.0505C139.03 25.7459 139.11 25.4759 139.27 25.2439C139.43 25.012 139.747 24.8943 140.216 24.8943C140.685 24.8943 141.001 25.012 141.161 25.2439C141.321 25.4793 141.401 25.7459 141.401 26.0505C141.401 26.4174 141.321 26.7151 141.161 26.9505C141.001 27.1859 140.685 27.3002 140.216 27.3002ZM139.19 41.0501V28.6399H141.241V41.0501H139.19Z" fill="white"/>
<path d="M147.838 41.0501C147.048 41.0501 146.496 40.8459 146.187 40.4408C145.877 40.0358 145.721 39.475 145.721 38.7654V30.1076H143.67V28.6433C144.354 28.6433 144.859 28.5879 145.19 28.4771C145.521 28.3663 145.728 28.0859 145.816 27.6394C145.899 27.1928 145.943 26.4624 145.943 25.4446H147.703V28.6467H150.714V30.111H147.703V39.4715H150.747V41.057H147.838V41.0501Z" fill="white"/>
<path d="M157.991 41.355C156.794 41.355 155.812 41.0711 155.045 40.4999C154.278 39.9287 153.703 39.1671 153.332 38.2117C152.958 37.2563 152.772 36.1693 152.772 34.9508C152.772 33.0814 153.205 31.5548 154.07 30.3778C154.936 29.2008 156.242 28.6089 157.994 28.6089C158.893 28.6089 159.646 28.7404 160.253 29.007C160.86 29.2701 161.351 29.6162 161.726 30.042C162.1 30.4678 162.373 30.9282 162.544 31.4233L162.577 31.264V28.6123H164.69V41.0503H162.93L162.61 38.686L162.544 38.641C162.351 39.0494 162.075 39.4579 161.711 39.8768C161.348 40.2922 160.864 40.6453 160.253 40.9292C159.638 41.213 158.886 41.355 157.991 41.355ZM158.791 39.6172C160.115 39.6172 161.071 39.1948 161.657 38.3502C162.242 37.5055 162.537 36.3839 162.537 34.9819C162.537 33.4795 162.231 32.3441 161.624 31.5825C161.017 30.8209 160.071 30.4401 158.791 30.4401C157.38 30.4401 156.372 30.8659 155.765 31.721C155.158 32.576 154.852 33.6526 154.852 34.9542C154.852 36.3147 155.161 37.4328 155.78 38.3086C156.398 39.181 157.402 39.6172 158.791 39.6172Z" fill="white"/>
<path d="M167.536 41.0512V23.888H169.554V41.0512H167.536Z" fill="white"/>
<path d="M107.354 60.7612C106.157 60.7612 105.175 60.4774 104.408 59.9062C103.641 59.3385 103.066 58.5734 102.695 57.618C102.32 56.6625 102.135 55.5756 102.135 54.357C102.135 52.4877 102.568 50.9611 103.433 49.7841C104.299 48.6071 105.604 48.0151 107.357 48.0151C108.256 48.0151 109.009 48.1467 109.616 48.4132C110.223 48.6763 110.714 49.0225 111.089 49.4483C111.463 49.8741 111.736 50.3345 111.907 50.8295L111.94 50.6703V48.0186H114.053V60.4566H112.285L111.965 58.0922L111.9 58.0472C111.707 58.4557 111.431 58.8642 111.067 59.2831C110.703 59.6985 110.22 60.0516 109.609 60.3354C109.005 60.6193 108.252 60.7612 107.354 60.7612ZM108.154 59.0234C109.478 59.0234 110.434 58.6011 111.02 57.7564C111.605 56.9118 111.9 55.7902 111.9 54.3882C111.9 52.8858 111.594 51.7503 110.987 50.9888C110.38 50.2272 109.434 49.8464 108.154 49.8464C106.743 49.8464 105.735 50.2722 105.128 51.1272C104.521 51.9823 104.215 53.0589 104.215 54.3605C104.215 55.7209 104.524 56.8391 105.143 57.7149C105.765 58.5838 106.765 59.0234 108.154 59.0234Z" fill="white"/>
<path d="M119.719 60.4579C118.93 60.4579 118.377 60.2537 118.068 59.8487C117.759 59.4436 117.603 58.8828 117.603 58.1732V49.5154H115.552V48.0511C116.235 48.0511 116.741 47.9957 117.072 47.885C117.403 47.7742 117.61 47.4938 117.697 47.0472C117.781 46.6006 117.824 45.8702 117.824 44.8525H119.585V48.0546H122.596V49.5189H119.585V58.8794H122.629V60.4649H119.719V60.4579Z" fill="white"/>
<path d="M125.898 60.4578V48.0475H127.949V60.4578H125.898Z" fill="white"/>
<path d="M140.503 48.0475H142.554V48.4733L137.622 60.4544H134.709L129.741 48.4733V48.0475H131.793L136.149 58.8412H136.215L140.503 48.0475Z" fill="white"/>
<path d="M146.045 46.708C145.576 46.708 145.259 46.5903 145.099 46.3584C144.939 46.1264 144.859 45.8253 144.859 45.4583C144.859 45.1537 144.939 44.8837 145.099 44.6518C145.259 44.4198 145.576 44.3021 146.045 44.3021C146.514 44.3021 146.83 44.4198 146.99 44.6518C147.15 44.8872 147.23 45.1537 147.23 45.4583C147.23 45.8253 147.15 46.123 146.99 46.3584C146.83 46.5903 146.514 46.708 146.045 46.708ZM145.019 60.4579V48.0477H147.07V60.4579H145.019Z" fill="white"/>
<path d="M155.268 60.7614C154.028 60.7614 153.01 60.5121 152.21 60.0136C151.409 59.5152 150.809 58.9301 150.417 58.262C150.02 57.5904 149.824 56.9916 149.824 56.4654H151.81C151.81 56.4862 151.824 56.6385 151.857 56.9223C151.89 57.2062 152.002 57.5316 152.191 57.8985C152.384 58.2655 152.715 58.584 153.184 58.8609C153.653 59.1344 154.337 59.2728 155.235 59.2728C156.196 59.2728 157.025 59.1101 157.719 58.7847C158.414 58.4593 158.749 57.9505 158.727 57.2616C158.727 56.6731 158.519 56.2196 158.101 55.9046C157.687 55.5896 157.145 55.3472 156.483 55.1742C155.821 55.0011 155.126 54.8349 154.403 54.6722C153.675 54.5095 152.988 54.3018 152.337 54.0456C151.686 53.7929 151.159 53.4295 150.751 52.9621C150.344 52.4948 150.144 51.844 150.144 51.0097C150.144 49.992 150.624 49.1854 151.584 48.5865C152.544 47.9876 153.773 47.6865 155.268 47.6865C156.101 47.6865 156.945 47.8145 157.799 48.0673C158.654 48.3234 159.36 48.7596 159.912 49.3792C160.469 49.9989 160.723 50.8678 160.68 51.9859H158.759C158.803 51.214 158.621 50.6324 158.214 50.2481C157.807 49.8639 157.323 49.6043 156.756 49.4692C156.188 49.3377 155.672 49.2719 155.203 49.2719C154.283 49.2719 153.53 49.4346 152.944 49.76C152.355 50.0854 152.064 50.5424 152.064 51.1309C152.064 51.6986 152.271 52.1313 152.69 52.4256C153.104 52.7198 153.639 52.9552 154.29 53.1283C154.941 53.3014 155.635 53.4641 156.37 53.6164C157.108 53.7687 157.807 53.9764 158.468 54.243C159.13 54.5061 159.669 54.8834 160.087 55.3715C160.501 55.8596 160.712 56.5312 160.712 57.3827C160.712 58.5632 160.189 59.4217 159.141 59.9583C158.098 60.4914 156.806 60.7614 155.268 60.7614Z" fill="white"/>
<path d="M166.222 60.4579C165.433 60.4579 164.88 60.2537 164.571 59.8487C164.262 59.4436 164.106 58.8828 164.106 58.1732V49.5154H162.055V48.0511C162.738 48.0511 163.244 47.9957 163.575 47.885C163.906 47.7742 164.113 47.4938 164.2 47.0472C164.284 46.6006 164.328 45.8702 164.328 44.8525H166.088V48.0546H169.099V49.5189H166.088V58.8794H169.132V60.4649H166.222V60.4579Z" fill="white"/>
<path d="M176.376 60.761C175.18 60.761 174.198 60.4771 173.43 59.9059C172.663 59.3347 172.088 58.5732 171.717 57.6177C171.343 56.6623 171.157 55.5753 171.157 54.3568C171.157 52.4874 171.59 50.9608 172.456 49.7838C173.321 48.6068 174.627 48.0149 176.38 48.0149C177.278 48.0149 178.031 48.1464 178.638 48.413C179.246 48.6761 179.737 49.0223 180.111 49.448C180.486 49.8738 180.758 50.3343 180.929 50.8293L180.962 50.67V48.0184H183.075V60.4563H181.315L180.995 58.092L180.929 58.047C180.737 58.4555 180.46 58.864 180.097 59.2828C179.733 59.6982 179.249 60.0513 178.638 60.3352C178.024 60.619 177.274 60.761 176.376 60.761ZM177.176 59.0232C178.5 59.0232 179.456 58.6009 180.042 57.7562C180.628 56.9115 180.922 55.7899 180.922 54.3879C180.922 52.8855 180.617 51.7501 180.009 50.9885C179.402 50.2269 178.456 49.8461 177.176 49.8461C175.765 49.8461 174.758 50.2719 174.15 51.127C173.543 51.982 173.238 53.0586 173.238 54.3602C173.238 55.7207 173.547 56.8388 174.165 57.7147C174.783 58.5836 175.787 59.0232 177.176 59.0232Z" fill="white"/>
<path d="M82.8964 52.7853L82.8955 52.7833L62.0339 4.24551C62.0337 4.24515 62.0336 4.24479 62.0334 4.24443C61.1812 2.21337 59.1766 0.882854 56.8198 0.759324C54.4613 0.635707 52.3254 1.74929 51.2045 3.68102L51.2043 3.68122L31.2503 38.1442L31.2491 38.1463C30.3348 39.7613 30.232 41.6302 30.9786 43.3112C31.7252 44.9921 33.2473 46.2583 35.1272 46.8125L35.1288 46.813L76.8214 58.8065L76.8214 58.8067L76.8311 58.8091C77.3234 58.9295 77.801 59.0246 78.3181 59.0246C79.6437 59.0246 80.9737 58.5263 81.9326 57.5839L81.9327 57.584L81.9377 57.5788C83.2028 56.2615 83.5863 54.4305 82.8964 52.7853ZM32.818 38.9611L32.8186 38.9602L52.7724 4.49761C53.5023 3.24237 54.9081 2.47917 56.4498 2.47917H56.4503H56.4509H56.4515H56.4521H56.4526H56.4532H56.4538H56.4543H56.4549H56.4554H56.456H56.4566H56.4571H56.4577H56.4583H56.4588H56.4594H56.4599H56.4605H56.461H56.4616H56.4621H56.4627H56.4633H56.4638H56.4644H56.4649H56.4655H56.466H56.4666H56.4671H56.4677H56.4682H56.4688H56.4693H56.4699H56.4704H56.4709H56.4715H56.472H56.4726H56.4731H56.4737H56.4742H56.4747H56.4753H56.4758H56.4764H56.4769H56.4774H56.478H56.4785H56.479H56.4796H56.4801H56.4806H56.4812H56.4817H56.4822H56.4828H56.4833H56.4838H56.4844H56.4849H56.4854H56.4859H56.4865H56.487H56.4875H56.488H56.4886H56.4891H56.4896H56.4901H56.4907H56.4912H56.4917H56.4922H56.4928H56.4933H56.4938H56.4943H56.4948H56.4954H56.4959H56.4964H56.4969H56.4974H56.4979H56.4985H56.499H56.4995H56.5H56.5005H56.501H56.5015H56.502H56.5026H56.5031H56.5036H56.5041H56.5046H56.5051H56.5056H56.5061H56.5066H56.5071H56.5077H56.5082H56.5087H56.5092H56.5097H56.5102H56.5107H56.5112H56.5117H56.5122H56.5127H56.5132H56.5137H56.5142H56.5147H56.5152H56.5157H56.5162H56.5167H56.5172H56.5177H56.5182H56.5187H56.5192H56.5197H56.5202H56.5207H56.5212H56.5217H56.5222H56.5227H56.5232H56.5237H56.5242H56.5247H56.5252H56.5256H56.5261H56.5266H56.5271H56.5276H56.5281H56.5286H56.5291H56.5296H56.5301H56.5306H56.5311H56.5315H56.532H56.5325H56.533H56.5335H56.534H56.5345H56.535H56.5355H56.5359H56.5364H56.5369H56.5374H56.5379H56.5384H56.5389H56.5393H56.5398H56.5403H56.5408H56.5413H56.5418H56.5423H56.5427H56.5432H56.5437H56.5442H56.5447H56.5452H56.5456H56.5461H56.5466H56.5471H56.5476H56.5481H56.5485H56.549H56.5495H56.55H56.5505H56.5509H56.5514H56.5519H56.5524H56.5529H56.5533H56.5538H56.5543H56.5548H56.5553H56.5557H56.5562H56.5567H56.5572H56.5576H56.5581H56.5586H56.5591H56.5596H56.56H56.5605H56.561H56.5615H56.5619H56.5624H56.5629H56.5634H56.5639H56.5643H56.5648H56.5653H56.5658H56.5662H56.5667H56.5672H56.5677H56.5681H56.5686H56.5691H56.5696H56.57H56.5705H56.571H56.5715H56.572H56.5724H56.5729H56.5734H56.5739H56.5743H56.5748H56.5753H56.5758H56.5762H56.5767H56.5772H56.5777H56.5781H56.5786H56.5791H56.5796H56.58H56.5805H56.581H56.5815H56.5819H56.5824H56.5829H56.5834H56.5838H56.5843H56.5848H56.5853H56.5857H56.5862H56.5867H56.5872H56.5876H56.5881H56.5886H56.5891H56.5895H56.59H56.5905H56.591H56.5914H56.5919H56.5924H56.5929H56.5934H56.5938H56.5943H56.5948H56.5953H56.5957H56.5962H56.5967H56.5972H56.5976H56.5981H56.5986H56.5991H56.5996H56.6H56.6005H56.601H56.6015H56.6019H56.6024H56.6029H56.6034H56.6039H56.6043H56.6048H56.6053H56.6058H56.6063H56.6067H56.6072H56.6077H56.6082H56.6087H56.6091H56.6096H56.6101H56.6106H56.6111H56.6115H56.612H56.6125H56.613H56.6135H56.614H56.6144H56.6149H56.6154H56.6159H56.6164H56.6169H56.6173H56.6178H56.6183H56.6188H56.6193H56.6198H56.6203H56.6207H56.6212H56.6217H56.6222H56.6227H56.6232H56.6237H56.6241H56.6246H56.6251H56.6256H56.6261H56.6266H56.6271H56.6276H56.6281H56.6286H56.629H56.6295H56.63H56.6305H56.631H56.6315H56.632H56.6325H56.633H56.6335H56.634H56.6345H56.635H56.6354H56.6359H56.6364H56.6369H56.6374H56.6379H56.6384H56.6389H56.6394H56.6399H56.6404H56.6409H56.6414H56.6419H56.6424H56.6429H56.6434H56.6439H56.6444H56.6449H56.6454H56.6459H56.6464H56.6469H56.6474H56.6479H56.6484H56.6489H56.6494H56.65H56.6505H56.651H56.6515H56.652H56.6525H56.653H56.6535H56.654H56.6545H56.655H56.6555H56.656H56.6566H56.6571H56.6576H56.6581H56.6586H56.6591H56.6596H56.6602H56.6607H56.6612H56.6617H56.6622H56.6627H56.6632H56.6638H56.6643H56.6648H56.6653H56.6658H56.6664H56.6669H56.6674H56.6679H56.6685H56.669H56.6695H56.67H56.6705H56.6711H56.6716H56.6721H56.6727H56.6732H56.6737H56.6742H56.6748H56.6753H56.6758H56.6764H56.6769H56.6774H56.6779H56.6785H56.679H56.6796H56.6801H56.6806H56.6812H56.6817H56.6822H56.6828H56.6833H56.6838H56.6844H56.6849H56.6855H56.686H56.6866H56.6871H56.6876H56.6882H56.6887H56.6893H56.6898H56.6904H56.6909H56.6915H56.692H56.6926H56.6931H56.6937H56.6942H56.6948H56.6953H56.6959H56.6964H56.697H56.6975H56.6981H56.6986H56.6992H56.6998H56.7003H56.7009H56.7014H56.702H56.7026H56.7029C58.3643 2.56599 59.7333 3.49522 60.3409 4.88781C60.341 4.88805 60.3411 4.88829 60.3412 4.88853L81.1707 53.427L81.1706 53.427L81.1743 53.435C81.6443 54.4317 81.4157 55.5691 80.5763 56.394C79.7346 57.2212 78.4984 57.5284 77.3162 57.195C77.3159 57.1949 77.3156 57.1948 77.3153 57.1948L35.6248 45.2018C34.2622 44.8041 33.1544 43.8687 32.6025 42.6595C32.0538 41.4572 32.1434 40.1143 32.818 38.9611Z" fill="#6A49EF" stroke="#6A49EF" stroke-width="0.5"/>
<path d="M40.5243 13.4768L40.5239 13.4767L19.9549 7.49526C19.9546 7.49519 19.9544 7.49511 19.9541 7.49504C18.6809 7.11651 17.3726 7.33826 16.3079 8.0313L16.3079 8.03125L16.3037 8.03414C15.2365 8.76042 14.6045 9.87606 14.6045 11.0979V53.7748C14.6045 56.4577 16.4748 58.7789 19.2297 59.5801L39.9934 65.6508C39.9936 65.6509 39.9938 65.651 39.9941 65.651C42.6107 66.431 45.1977 66.8219 47.6895 66.8219C51.7565 66.8219 55.5373 65.7389 58.5679 63.7144L58.568 63.7144C63.3185 60.5371 65.9144 55.2754 65.9144 48.9833V44.6382C65.9144 38.2903 63.2589 31.5398 58.4603 25.6712C53.6617 19.8025 47.2931 15.4564 40.5243 13.4768ZM19.3887 9.22391L19.3918 9.22483L39.9944 15.2364C46.4317 17.1259 52.4894 21.2322 57.0346 26.8205L57.0351 26.8211C61.6134 32.4105 64.1166 38.7845 64.1166 44.7573V48.8643C64.1166 54.6247 61.7487 59.3629 57.5114 62.2273C53.045 65.1824 47.0257 65.8108 40.4911 63.9211L19.7275 57.8504C19.7272 57.8503 19.7269 57.8502 19.7267 57.8502C17.7102 57.2523 16.3699 55.5842 16.3699 53.6557V11.2169C16.3699 10.5616 16.7131 9.92287 17.2975 9.51977C17.9161 9.11547 18.6816 9.00773 19.3887 9.22391Z" fill="#FF2626" stroke="#FF2626" stroke-width="0.5"/>
<path d="M2.45345 21.7511L2.45342 21.751L2.44918 21.7539C1.38093 22.4809 0.75 23.597 0.75 24.8474V67.4053C0.75 70.0882 2.62027 72.4093 5.37524 73.2106L21.9517 78.0606C21.9522 78.0607 21.9527 78.0609 21.9532 78.061C22.3646 78.1867 22.7781 78.2501 23.1928 78.2501C24.0539 78.2501 24.8801 77.9971 25.601 77.5247L25.6011 77.5247L25.6047 77.5223C26.6719 76.796 27.3039 75.6803 27.3039 74.4586V31.9007C27.3039 29.1908 25.4689 26.8677 22.7111 26.0656L6.10036 21.215C6.10015 21.215 6.09995 21.2149 6.09974 21.2149C4.82645 20.8363 3.51814 21.058 2.45345 21.7511ZM5.52597 22.8517L5.52588 22.852L5.53708 22.8553L22.116 27.706C22.1161 27.7061 22.1162 27.7061 22.1164 27.7061C24.1321 28.3037 25.4736 30.0009 25.4736 31.9007V74.4586H25.4734L25.4738 74.4694C25.5022 75.1195 25.1935 75.7229 24.5808 76.1244C23.9631 76.5291 23.2265 76.6401 22.4803 76.4495L5.90544 71.5999C3.88949 71.0025 2.54783 69.3052 2.54783 67.4053V24.8474C2.54783 24.1641 2.88951 23.5544 3.47546 23.1503C3.88774 22.8808 4.35822 22.7463 4.82859 22.7463C5.0689 22.7463 5.29949 22.7738 5.52597 22.8517Z" fill="#48FEA7" stroke="#48FEA7" stroke-width="0.5"/>
</svg>
