<svg width="52" height="66" viewBox="0 0 52 66" fill="none" xmlns="http://www.w3.org/2000/svg">
<path d="M51.9903 38.1487L51.9854 62.2347C51.9854 64.5028 49.7659 66.1166 47.5903 65.4284L25.9902 58.6L25.9951 29.9294L51.9903 38.1487Z" fill="#48FEA7"/>
<path d="M52.0001 13.8446L51.9952 38.1487L26.0001 29.9294L26.005 1.2588L47.8148 8.15504C50.3074 8.94498 52.0001 11.2421 52.0001 13.8446Z" fill="#48FEA7"/>
<path d="M0 21.715L25.9952 29.9343L25.9903 58.6048C11.6342 54.0687 0 38.6285 0 24.1187V21.715Z" fill="#48FEA7"/>
<path d="M26.0032 1.26369L25.9983 29.9343L0.00316429 21.715V19.3161C0.00316429 4.80632 11.6471 -3.27727 26.0032 1.26369Z" fill="#48FEA7"/>
</svg>
