<svg width="65" height="73" viewBox="0 0 65 73" fill="none" xmlns="http://www.w3.org/2000/svg">
<path d="M52.8956 48.4923L45.6328 69.2608C44.9493 71.2166 42.5578 71.9424 40.8977 70.6964L24.415 58.3286L33.0595 33.6068L52.8956 48.4923Z" fill="#7700FF"/>
<path d="M60.2282 27.5373L52.8997 48.4938L33.0636 33.6082L41.708 8.88636L58.3503 21.3755C60.2518 22.8045 61.0125 25.2931 60.2282 27.5373Z" fill="#7700FF"/>
<path d="M13.2218 18.7253L33.0579 33.6109L24.4135 58.3328C13.4579 50.1147 8.12471 33.3102 12.4974 20.7981L13.2218 18.7253Z" fill="#7700FF"/>
<path d="M41.7053 8.89014L33.0609 33.612L13.2248 18.7264L13.9478 16.6578C18.3205 4.14566 30.7512 0.667882 41.7053 8.89014Z" fill="#7700FF"/>
</svg>
