<svg width="64" height="67" viewBox="0 0 64 67" fill="none" xmlns="http://www.w3.org/2000/svg">
<path d="M43.6631 50.1435L26.2663 55.5602C24.2794 56.18 22.1247 55.447 20.9425 53.7486L9.88499 37.8555L30.6202 31.3982L43.6631 50.1435Z" fill="#FF2626"/>
<path d="M60.8925 44.7811L43.6655 50.1474L30.6227 31.4021L51.3579 24.9449L62.3173 40.6972C63.3458 42.1746 62.6273 44.2406 60.8925 44.7811Z" fill="#FF2626"/>
<path d="M17.5761 12.6537L30.619 31.399L9.8838 37.8562L8.79172 36.2873C2.19268 26.7991 6.12446 16.2214 17.5761 12.6537Z" fill="#FF2626"/>
<path d="M51.3557 24.9416L30.6206 31.3988L17.5777 12.6535C29.0293 9.08576 43.6646 13.8845 50.2637 23.3727L51.3557 24.9416Z" fill="#FF2626"/>
</svg>
