<svg width="97" height="90" viewBox="0 0 97 90" fill="none" xmlns="http://www.w3.org/2000/svg">
<path d="M66.9758 86.4264L66.9759 86.4264C67.9367 86.8661 69.0145 86.8116 69.9486 86.2765C70.5736 85.9136 71.0564 85.3795 71.3464 84.7459C71.4892 84.4338 71.5851 84.1003 71.6293 83.7464L71.6294 83.7455L75.06 57.0624C76.1787 48.3519 74.1121 39.0319 69.8633 31.0189C65.6141 23.0053 59.1933 16.3192 51.6261 12.8587L51.6261 12.8586L46.5251 10.5245C39.4062 7.27125 32.3041 7.33171 26.5132 10.659C20.45 14.1458 16.4871 20.7636 15.3836 29.3418L11.9202 56.2772L11.9202 56.2773C11.5573 59.0863 13.0084 61.7442 15.5248 62.8957L66.9758 86.4264ZM14.1014 29.1901C14.1014 29.1901 14.1014 29.19 14.1014 29.19C14.5352 25.8014 15.4044 22.6929 16.6648 19.9387C18.7367 15.4108 21.8675 11.8331 25.882 9.52961C32.0682 5.97328 39.5977 5.91822 47.072 9.33847L52.173 11.6727C52.173 11.6727 52.1731 11.6727 52.1731 11.6727C60.0061 15.2549 66.6245 22.1566 70.9957 30.3958C75.3673 38.6356 77.5024 48.2332 76.3461 57.2249C76.3461 57.2249 76.3461 57.2249 76.3461 57.2249L72.9189 83.9004C72.9189 83.9005 72.9189 83.9006 72.9189 83.9007C72.7293 85.3878 71.8769 86.6684 70.5818 87.4112C69.2865 88.1539 67.7757 88.2331 66.4344 87.6193C66.4344 87.6193 66.4344 87.6193 66.4344 87.6193L14.9834 64.0887C11.9491 62.7002 10.2035 59.4992 10.638 56.1253L14.1014 29.1901Z" fill="white" stroke="white" stroke-width="0.5"/>
</svg>
