<svg width="193" height="224" viewBox="0 0 193 224" fill="none" xmlns="http://www.w3.org/2000/svg">
<g filter="url(#filter0_f)">
<mask id="path-1-outside-1" maskUnits="userSpaceOnUse" x="10" y="10" width="173" height="204" fill="black">
<rect fill="white" x="10" y="10" width="173" height="204"/>
<path d="M167.756 212.975C166.292 212.975 164.817 212.754 163.353 212.313L25.0372 169.925C19.3422 168.18 14.7669 164.079 12.5061 158.685C10.2346 153.29 10.5468 147.233 13.3458 142.081L79.5647 20.3034C82.8805 14.1941 89.3398 10.6399 96.4128 11.029C103.486 11.418 109.482 15.6557 112.077 22.091L181.213 193.574C183.28 198.706 182.171 204.395 178.328 208.432C175.518 211.387 171.707 212.975 167.756 212.975ZM95.3577 13.111C89.5013 13.111 84.2369 16.192 81.4594 21.2919L15.2513 143.069C12.7537 147.665 12.4738 153.069 14.4977 157.885C16.5217 162.701 20.6018 166.361 25.6831 167.917L163.999 210.304C168.585 211.713 173.473 210.451 176.745 207.013C180.018 203.574 180.965 198.727 179.2 194.363L110.074 22.8692C107.792 17.2014 102.506 13.479 96.2943 13.132C95.9714 13.1215 95.6592 13.111 95.3577 13.111Z"/>
</mask>
<path d="M167.756 212.975C166.292 212.975 164.817 212.754 163.353 212.313L25.0372 169.925C19.3422 168.18 14.7669 164.079 12.5061 158.685C10.2346 153.29 10.5468 147.233 13.3458 142.081L79.5647 20.3034C82.8805 14.1941 89.3398 10.6399 96.4128 11.029C103.486 11.418 109.482 15.6557 112.077 22.091L181.213 193.574C183.28 198.706 182.171 204.395 178.328 208.432C175.518 211.387 171.707 212.975 167.756 212.975ZM95.3577 13.111C89.5013 13.111 84.2369 16.192 81.4594 21.2919L15.2513 143.069C12.7537 147.665 12.4738 153.069 14.4977 157.885C16.5217 162.701 20.6018 166.361 25.6831 167.917L163.999 210.304C168.585 211.713 173.473 210.451 176.745 207.013C180.018 203.574 180.965 198.727 179.2 194.363L110.074 22.8692C107.792 17.2014 102.506 13.479 96.2943 13.132C95.9714 13.1215 95.6592 13.111 95.3577 13.111Z" fill="white" fill-opacity="0.87"/>
<path d="M167.756 212.975C166.292 212.975 164.817 212.754 163.353 212.313L25.0372 169.925C19.3422 168.18 14.7669 164.079 12.5061 158.685C10.2346 153.29 10.5468 147.233 13.3458 142.081L79.5647 20.3034C82.8805 14.1941 89.3398 10.6399 96.4128 11.029C103.486 11.418 109.482 15.6557 112.077 22.091L181.213 193.574C183.28 198.706 182.171 204.395 178.328 208.432C175.518 211.387 171.707 212.975 167.756 212.975ZM95.3577 13.111C89.5013 13.111 84.2369 16.192 81.4594 21.2919L15.2513 143.069C12.7537 147.665 12.4738 153.069 14.4977 157.885C16.5217 162.701 20.6018 166.361 25.6831 167.917L163.999 210.304C168.585 211.713 173.473 210.451 176.745 207.013C180.018 203.574 180.965 198.727 179.2 194.363L110.074 22.8692C107.792 17.2014 102.506 13.479 96.2943 13.132C95.9714 13.1215 95.6592 13.111 95.3577 13.111Z" stroke="white" mask="url(#path-1-outside-1)"/>
</g>
<defs>
<filter id="filter0_f" x="0.5" y="0.5" width="192.238" height="222.975" filterUnits="userSpaceOnUse" color-interpolation-filters="sRGB">
<feFlood flood-opacity="0" result="BackgroundImageFix"/>
<feBlend mode="normal" in="SourceGraphic" in2="BackgroundImageFix" result="shape"/>
<feGaussianBlur stdDeviation="5" result="effect1_foregroundBlur"/>
</filter>
</defs>
</svg>
