<svg width="116" height="167" viewBox="0 0 116 167" fill="none" xmlns="http://www.w3.org/2000/svg">
<g filter="url(#filter0_f)">
<path d="M20.9148 11.5112L20.9144 11.5112C17.8783 11.2387 14.9577 12.3567 12.9098 14.6012C10.86 16.8378 10.04 19.8067 10.6652 22.7365C10.6652 22.7365 10.6652 22.7365 10.6652 22.7365L35.3429 138.505C36.7743 145.212 42.418 150.148 49.3904 150.783L94.5773 154.912C95.5749 155.003 96.566 154.939 97.5103 154.737C99.4428 154.325 101.204 153.323 102.583 151.831L102.584 151.829C104.632 149.585 105.454 146.625 104.829 143.694L80.1493 27.9181C78.7179 21.2104 73.0742 16.2747 66.1018 15.6396C66.1018 15.6396 66.1017 15.6396 66.1017 15.6396L20.9148 11.5112ZM12.8118 22.2785L12.8118 22.2784C12.3316 20.0279 12.9589 17.7618 14.5346 16.0335C15.5977 14.8807 16.9582 14.1079 18.44 13.7917C19.1695 13.6361 19.9312 13.5881 20.7011 13.6534C20.7013 13.6535 20.7016 13.6535 20.7019 13.6535L65.8855 17.7737L65.8857 17.7737C71.9033 18.3194 76.7735 22.575 78.0075 28.3581L102.687 144.134C103.167 146.385 102.54 148.652 100.964 150.38C99.3878 152.108 97.1426 152.972 94.7984 152.76C94.7984 152.76 94.7983 152.76 94.7983 152.76L49.6116 148.631C43.5837 148.079 38.7218 143.822 37.4895 138.047L12.8118 22.2785Z" fill="white" stroke="white" stroke-width="0.5"/>
</g>
<defs>
<filter id="filter0_f" x="0.210125" y="1.22088" width="115.073" height="163.981" filterUnits="userSpaceOnUse" color-interpolation-filters="sRGB">
<feFlood flood-opacity="0" result="BackgroundImageFix"/>
<feBlend mode="normal" in="SourceGraphic" in2="BackgroundImageFix" result="shape"/>
<feGaussianBlur stdDeviation="5" result="effect1_foregroundBlur"/>
</filter>
</defs>
</svg>
