<svg width="73" height="78" viewBox="0 0 73 78" fill="none" xmlns="http://www.w3.org/2000/svg">
<mask id="path-1-outside-1" maskUnits="userSpaceOnUse" x="-0.305309" y="-0.274976" width="72.9868" height="78.429" fill="black">
<rect fill="white" x="-0.305309" y="-0.274976" width="72.9868" height="78.429"/>
<path d="M67.6754 58.6496C67.2684 58.8171 66.8332 58.9244 66.3757 58.9691L23.0805 63.0082C21.2978 63.1744 19.5569 62.5578 18.3115 61.317C17.0631 60.0774 16.457 58.3581 16.6457 56.6057L21.1227 15.1815C21.3455 13.1041 22.7345 11.3773 24.745 10.6764C26.7555 9.97549 28.907 10.4675 30.3643 11.9595L69.1968 51.7176C70.3583 52.9076 70.7008 54.6157 70.0943 56.1777C69.6513 57.3204 68.7736 58.1977 67.6754 58.6496ZM24.6899 11.3758C23.062 12.0457 21.9511 13.5042 21.7624 15.2395L17.2884 56.6625C17.1198 58.2255 17.6602 59.7599 18.7737 60.867C19.8871 61.9742 21.4398 62.5247 23.0303 62.376L66.3255 58.3369C67.7614 58.204 68.9757 57.2942 69.4921 55.9641C70.0085 54.634 69.7173 53.1782 68.7274 52.1671L29.8967 12.4049C28.614 11.0905 26.719 10.6604 24.9526 11.2745C24.8617 11.3085 24.7737 11.3413 24.6899 11.3758Z"/>
</mask>
<path d="M67.6754 58.6496C67.2684 58.8171 66.8332 58.9244 66.3757 58.9691L23.0805 63.0082C21.2978 63.1744 19.5569 62.5578 18.3115 61.317C17.0631 60.0774 16.457 58.3581 16.6457 56.6057L21.1227 15.1815C21.3455 13.1041 22.7345 11.3773 24.745 10.6764C26.7555 9.97549 28.907 10.4675 30.3643 11.9595L69.1968 51.7176C70.3583 52.9076 70.7008 54.6157 70.0943 56.1777C69.6513 57.3204 68.7736 58.1977 67.6754 58.6496ZM24.6899 11.3758C23.062 12.0457 21.9511 13.5042 21.7624 15.2395L17.2884 56.6625C17.1198 58.2255 17.6602 59.7599 18.7737 60.867C19.8871 61.9742 21.4398 62.5247 23.0303 62.376L66.3255 58.3369C67.7614 58.204 68.9757 57.2942 69.4921 55.9641C70.0085 54.634 69.7173 53.1782 68.7274 52.1671L29.8967 12.4049C28.614 11.0905 26.719 10.6604 24.9526 11.2745C24.8617 11.3085 24.7737 11.3413 24.6899 11.3758Z" fill="white" fill-opacity="0.87"/>
<path d="M67.6754 58.6496C67.2684 58.8171 66.8332 58.9244 66.3757 58.9691L23.0805 63.0082C21.2978 63.1744 19.5569 62.5578 18.3115 61.317C17.0631 60.0774 16.457 58.3581 16.6457 56.6057L21.1227 15.1815C21.3455 13.1041 22.7345 11.3773 24.745 10.6764C26.7555 9.97549 28.907 10.4675 30.3643 11.9595L69.1968 51.7176C70.3583 52.9076 70.7008 54.6157 70.0943 56.1777C69.6513 57.3204 68.7736 58.1977 67.6754 58.6496ZM24.6899 11.3758C23.062 12.0457 21.9511 13.5042 21.7624 15.2395L17.2884 56.6625C17.1198 58.2255 17.6602 59.7599 18.7737 60.867C19.8871 61.9742 21.4398 62.5247 23.0303 62.376L66.3255 58.3369C67.7614 58.204 68.9757 57.2942 69.4921 55.9641C70.0085 54.634 69.7173 53.1782 68.7274 52.1671L29.8967 12.4049C28.614 11.0905 26.719 10.6604 24.9526 11.2745C24.8617 11.3085 24.7737 11.3413 24.6899 11.3758Z" stroke="white" mask="url(#path-1-outside-1)"/>
</svg>
