<svg width="33" height="74" viewBox="0 0 33 74" fill="none" xmlns="http://www.w3.org/2000/svg">
<path d="M6.64394 0.960384L6.64356 0.960266C5.25986 0.532615 3.79014 0.762426 2.61488 1.60307C1.43939 2.44004 0.761751 3.74163 0.761734 5.16848C0.761734 5.16849 0.761734 5.16851 0.761734 5.16853L0.75 59.8004C0.75 63.0266 2.86198 65.8491 6.00278 66.8243L26.0014 73.0401C26.456 73.1814 26.923 73.25 27.382 73.25C28.3222 73.25 29.2407 72.9585 30.0294 72.402L30.0307 72.401C31.2056 71.5605 31.8836 70.263 31.8836 68.8358L31.8953 14.2V14.2C31.8953 10.9738 29.7833 8.15139 26.6425 7.17618L6.64394 0.960384ZM2.044 5.16858V5.16853C2.044 4.15096 2.52358 3.22895 3.36659 2.62534C3.93495 2.22339 4.59626 2.01454 5.26727 2.01454C5.59791 2.01454 5.93303 2.06419 6.26165 2.16398C6.26189 2.16405 6.26213 2.16412 6.26238 2.16419L26.2596 8.37574L26.2597 8.37577C28.8686 9.18476 30.6169 11.5237 30.617 14.1923C30.617 14.1923 30.617 14.1923 30.617 14.1923L30.6052 68.8281C30.6052 69.8459 30.1254 70.7681 29.2821 71.3717C28.439 71.9751 27.3861 72.1423 26.3882 71.8329L6.38976 65.6171C3.77673 64.8043 2.03227 62.4652 2.03227 59.8005L2.044 5.16858Z" fill="white" stroke="white" stroke-width="0.5"/>
</svg>
